<svg width="155" height="29" viewBox="0 0 155 29" fill="none" xmlns="http://www.w3.org/2000/svg">
<g clip-path="url(#clip0_3115_64681)">
<path d="M119.757 8.00635H121.675L117.839 22.3632H115.959L112.879 12.9082H112.801L109.721 22.3632H107.841L103.831 8.00635H105.749L108.771 19.2826H108.849L111.949 9.92447H113.673L116.773 19.2826H116.851L119.757 8.00635Z" fill="#5F6368"/>
<path d="M125.724 12.2109C127.081 12.2109 128.166 12.5791 128.96 13.2959C129.754 14.0322 130.142 15.0203 130.142 16.2991V22.3441H128.379V20.9878H128.301C127.546 22.1116 126.519 22.6734 125.259 22.6734C124.174 22.6734 123.264 22.3441 122.547 21.7047C121.811 21.0653 121.462 20.2709 121.462 19.3022C121.462 18.2947 121.849 17.4809 122.605 16.8803C123.38 16.2797 124.407 15.9697 125.686 15.9697C126.79 15.9697 127.681 16.1634 128.398 16.5703V16.1441C128.398 15.5047 128.146 14.9622 127.643 14.5166C127.139 14.0709 126.538 13.8384 125.86 13.8384C124.833 13.8384 124.019 14.2647 123.419 15.1366L121.791 14.1097C122.644 12.8697 123.961 12.2109 125.724 12.2109ZM123.341 19.3603C123.341 19.8447 123.535 20.2516 123.961 20.5616C124.368 20.8909 124.853 21.0459 125.395 21.0459C126.17 21.0459 126.868 20.7553 127.468 20.1934C128.069 19.6122 128.379 18.9534 128.379 18.1784C127.798 17.7328 127.003 17.5003 125.976 17.5003C125.221 17.5003 124.601 17.6747 124.097 18.0428C123.593 18.3722 123.341 18.8178 123.341 19.3603Z" fill="#5F6368"/>
<path d="M133.726 8.00635V22.3632H131.885V8.00635H133.726Z" fill="#5F6368"/>
<path d="M137.408 8.00635V22.3632H135.567V8.00635H137.408Z" fill="#5F6368"/>
<path d="M143.724 22.6734C142.29 22.6734 141.089 22.1891 140.159 21.1816C139.229 20.1934 138.764 18.9534 138.764 17.4422C138.764 15.9503 139.209 14.6909 140.12 13.7028C141.031 12.7147 142.193 12.2109 143.607 12.2109C145.061 12.2109 146.223 12.6759 147.076 13.6253C147.928 14.5747 148.374 15.8922 148.374 17.5778L148.354 17.7716H140.643C140.662 18.7403 140.992 19.5153 141.612 20.0966C142.232 20.6778 142.968 20.9878 143.821 20.9878C145.002 20.9878 145.913 20.4066 146.591 19.2247L148.238 20.0191C147.792 20.8522 147.192 21.4916 146.397 21.9566C145.603 22.4216 144.712 22.6734 143.724 22.6734ZM140.779 16.2603H146.417C146.359 15.5822 146.087 15.0203 145.584 14.5747C145.08 14.1291 144.402 13.8966 143.569 13.8966C142.871 13.8966 142.271 14.1097 141.767 14.5359C141.263 14.9622 140.934 15.5434 140.779 16.2603Z" fill="#5F6368"/>
<path d="M153.314 22.5184C152.52 22.5184 151.842 22.2665 151.319 21.7821C150.796 21.2784 150.524 20.6002 150.505 19.709V14.2259H148.781V12.5402H150.505V9.53711H152.345V12.5402H154.748V14.2259H152.345V19.1084C152.345 19.7671 152.481 20.2127 152.733 20.4452C152.985 20.6777 153.276 20.794 153.586 20.794C153.741 20.794 153.876 20.7746 154.012 20.7359C154.147 20.6971 154.283 20.6584 154.399 20.6002L154.98 22.2471C154.516 22.4409 153.954 22.5184 153.314 22.5184Z" fill="#5F6368"/>
<path d="M41.6951 22.6729C37.2194 22.6729 33.4607 19.0304 33.4607 14.5548C33.4607 10.0792 37.2194 6.45605 41.6951 6.45605C44.1751 6.45605 45.9188 7.4248 47.2557 8.68418L45.6863 10.2536C44.7369 9.3623 43.4582 8.6648 41.6951 8.6648C38.4401 8.6648 35.8826 11.2998 35.8826 14.5548C35.8826 17.8098 38.4401 20.4448 41.6951 20.4448C43.8069 20.4448 45.0082 19.5923 45.7832 18.8173C46.4226 18.1779 46.8294 17.2673 46.9844 16.0273H41.6369V13.8379H49.1544C49.2319 14.2254 49.2707 14.7098 49.2707 15.2136C49.2707 16.8798 48.8251 18.9336 47.3526 20.4061C45.9188 21.8786 44.0976 22.6729 41.6951 22.6729Z" fill="#5F6368"/>
<path d="M60.5082 17.4612C60.5082 20.4644 58.1638 22.6925 55.2769 22.6925C52.39 22.6925 50.0457 20.4837 50.0457 17.4612C50.0457 14.4387 52.39 12.23 55.2769 12.23C58.1638 12.23 60.5082 14.4194 60.5082 17.4612ZM58.2219 17.4612C58.2219 15.5819 56.8657 14.3031 55.2769 14.3031C53.6882 14.3031 52.3319 15.5819 52.3319 17.4612C52.3319 19.3212 53.6882 20.6194 55.2769 20.6194C56.8657 20.6194 58.2219 19.3212 58.2219 17.4612Z" fill="#5F6368"/>
<path d="M71.9007 17.4612C71.9007 20.4644 69.5564 22.6925 66.6695 22.6925C63.7826 22.6925 61.4382 20.4837 61.4382 17.4612C61.4382 14.4387 63.7826 12.23 66.6695 12.23C69.5564 12.23 71.9007 14.4194 71.9007 17.4612ZM69.6145 17.4612C69.6145 15.5819 68.2582 14.3031 66.6695 14.3031C65.0807 14.3031 63.7245 15.5819 63.7245 17.4612C63.7245 19.3212 65.0807 20.6194 66.6695 20.6194C68.2582 20.6194 69.6145 19.3212 69.6145 17.4612Z" fill="#5F6368"/>
<path d="M82.8088 12.5398V21.9173C82.8088 25.773 80.5419 27.3617 77.8488 27.3617C75.3106 27.3617 73.7994 25.6567 73.2182 24.2811L75.2138 23.448C75.5625 24.3005 76.4344 25.308 77.8488 25.308C79.5731 25.308 80.6388 24.2423 80.6388 22.2467V21.4911H80.5613C80.0381 22.1305 79.05 22.673 77.81 22.673C75.1944 22.673 72.8113 20.4061 72.8113 17.4611C72.8113 14.5161 75.1944 12.2104 77.81 12.2104C79.05 12.2104 80.0381 12.7723 80.5613 13.3729H80.6388V12.5204H82.8088V12.5398ZM80.7938 17.4805C80.7938 15.6398 79.5731 14.3029 78.0038 14.3029C76.415 14.3029 75.0975 15.6398 75.0975 17.4805C75.0975 19.3017 76.415 20.6192 78.0038 20.6192C79.5538 20.6192 80.7938 19.3017 80.7938 17.4805Z" fill="#5F6368"/>
<path d="M86.7419 6.99854V22.3435H84.4556V6.99854H86.7419Z" fill="#5F6368"/>
<path d="M95.635 19.1659L97.4175 20.3478C96.8363 21.2003 95.4607 22.6534 93.0581 22.6534C90.0938 22.6534 87.885 20.3672 87.885 17.4222C87.885 14.3222 90.1131 12.1909 92.8063 12.1909C95.5188 12.1909 96.8363 14.3415 97.2819 15.5234L97.5144 16.124L90.5394 19.0109C91.0819 20.0572 91.8956 20.5997 93.0775 20.5997C94.24 20.619 95.0538 20.0378 95.635 19.1659ZM90.1519 17.2865L94.8213 15.349C94.5694 14.6903 93.7944 14.2447 92.8838 14.2447C91.7213 14.2447 90.0938 15.2715 90.1519 17.2865Z" fill="#5F6368"/>
<path fill-rule="evenodd" clip-rule="evenodd" d="M23.8894 11.9392V8.31605C23.8894 6.22355 22.1844 4.51855 20.0919 4.51855H3.7975C1.705 4.53793 0 6.24293 0 8.31605V11.9392C0 12.3073 0.290625 12.5979 0.65875 12.5979H23.2306C23.5987 12.5979 23.8894 12.3073 23.8894 11.9392Z" fill="#34A853"/>
<path fill-rule="evenodd" clip-rule="evenodd" d="M23.8894 15.1166V11.5128C23.8894 9.42033 22.1844 7.71533 20.0919 7.71533H3.7975C1.705 7.71533 0 9.42033 0 11.5128V15.136C0 15.5041 0.290625 15.7947 0.65875 15.7947H23.2306C23.5987 15.7753 23.8894 15.4847 23.8894 15.1166Z" fill="#FBBC04"/>
<path fill-rule="evenodd" clip-rule="evenodd" d="M23.8894 18.3137V14.6906C23.8894 12.5981 22.1844 10.8931 20.0919 10.8931H3.7975C1.705 10.8931 0 12.5981 0 14.6906V18.3137C0 18.6818 0.290625 18.9724 0.65875 18.9724H23.2306C23.5987 18.9531 23.8894 18.6624 23.8894 18.3137Z" fill="#EA4335"/>
<path fill-rule="evenodd" clip-rule="evenodd" d="M15.19 16.5699L0 13.0437V21.0262C0 23.1187 1.705 24.8237 3.7975 24.8237H20.0919C22.1844 24.8237 23.8894 23.1187 23.8894 21.0262V12.8887L20.2662 15.5237C18.7937 16.5893 16.9531 16.9768 15.19 16.5699Z" fill="#4285F4"/>
</g>
<defs>
<clipPath id="clip0_3115_64681">
<rect width="155" height="25.3619" fill="white" transform="translate(0 2)"/>
</clipPath>
</defs>
</svg>
